# xmcd CD database file
#
# Track frame offsets:
#	150
#	17328
#	36462
#	57600
#	77218
#	103804
#	129283
#	149362
#	169945
#	192170
#	204233
#	220240
#	241163
#	266321
#
# Disc length: 3928 seconds
#
# Revision: 0
# Processed by: cddbd v1.5.2PL0 Copyright (c) Steve Scherf et al.
# Submitted via: CDex 1.70beta2
#
DISCID=c40f560e
DTITLE=Al Jarreau - Love Songs
DYEAR=1900
DGENRE=Jazz
TTITLE0=We're in this Love Together
TTITLE1=Teach me Tonight
TTITLE2=So Good
TTITLE3=After Al
TTITLE4=Wait for the Magic
TTITLE5=Your Song
TTITLE6=Heaven and Earth
TTITLE7=Through it All
TTITLE8=Let it Rain
TTITLE9=Not like This
TTITLE10=Brite N'Sunny Babe
TTITLE11=Secrets of Love
TTITLE12=My Foolish Heart
TTITLE13=Goodhands Tonight
EXTD=
EXTT0=
EXTT1=
EXTT2=
EXTT3=
EXTT4=
EXTT5=
EXTT6=
EXTT7=
EXTT8=
EXTT9=
EXTT10=
EXTT11=
EXTT12=
EXTT13=
PLAYORDER=
